<svg xmlns="http://www.w3.org/2000/svg" viewBox="0 0 37.965 26.301"><defs><style>.cls-1{fill:#464646;}</style></defs><title>icon-airplane02</title><g id="レイヤー_2" data-name="レイヤー 2"><g id="レイヤー_1-2" data-name="レイヤー 1"><path class="cls-1" d="M37.965.5a.484.484,0,0,0-.04-.2A.319.319,0,0,0,37.9.256c0-.007,0-.016-.006-.023s-.02-.014-.027-.024A.474.474,0,0,0,37.7.063c-.011-.007-.02-.015-.031-.021A.494.494,0,0,0,37.43.005c-.009,0-.018-.006-.028,0L.435,4.89a.5.5,0,0,0-.293.845l6.527,6.69L4.856,23.937a.515.515,0,0,0,.007.184c0,.012.01.022.013.034a.521.521,0,0,0,.062.138l.006.013c.007.01.019.013.026.022a.493.493,0,0,0,.129.111.528.528,0,0,0,.058.03.381.381,0,0,0,.045.023.509.509,0,0,0,.149.023h0a.5.5,0,0,0,.272-.088s.01,0,.015,0l7.487-5.375,6.931,7.105a.5.5,0,0,0,.358.15.339.339,0,0,0,.045,0,.5.5,0,0,0,.37-.218L37.882.775c.007-.01.005-.022.011-.033A.48.48,0,0,0,37.96.529C37.961.518,37.965.508,37.965.5Zm-4.557,1.04L7.329,11.669,1.555,5.75ZM9.677,13.852,9.605,14,8.088,12.447,27.321,4.974,9.9,13.62A.5.5,0,0,0,9.677,13.852Zm-2.136-.534,1.6,1.643-2.77,5.767Zm-.893,9.15,3.239-6.745,2.535,2.6Zm13.7,2.544-10-10.248.156-.324L36,1.784Z"/></g></g></svg>