<svg width="250" height="76" viewBox="0 0 250 76" fill="#ffcfcffa" xmlns="http://www.w3.org/2000/svg">
<path d="M0.192 21.024C0.064 20.192 0 19.68 0 19.488C0.896 14.688 5.6 10.112 14.112 5.76C20.832 2.624 28.768 1.056 37.92 1.056C43.552 1.056 49.12 1.824 54.624 3.36C58.336 4.64 61.152 6.464 63.072 8.832C64.992 11.2 65.952 13.6 65.952 16.032C65.952 19.744 64.48 23.04 61.536 25.92C58.592 28.736 55.296 30.912 51.648 32.448C43.52 35.968 34.24 37.92 23.808 38.304C24.64 39.328 25.984 41.024 27.84 43.392C29.696 45.696 31.104 47.424 32.064 48.576C33.024 49.728 34.4 51.36 36.192 53.472C38.048 55.52 39.584 57.088 40.8 58.176C42.08 59.328 43.68 60.672 45.6 62.208C47.52 63.808 49.344 65.056 51.072 65.952C57.088 69.152 62.336 70.752 66.816 70.752L70.08 70.464C72.256 70.08 73.984 69.184 75.264 67.776C76.544 66.432 77.184 64.928 77.184 63.264C77.184 62.624 77.088 61.92 76.896 61.152C76.768 60.448 76.992 60.096 77.568 60.096C78.208 60.16 78.624 60.608 78.816 61.44C79.072 62.336 79.2 63.424 79.2 64.704C79.2 65.984 78.88 67.456 78.24 69.12C77.536 71.424 75.584 73.184 72.384 74.4C70.336 75.168 68.416 75.552 66.624 75.552C61.248 75.552 55.808 74.048 50.304 71.04C46.656 68.992 43.36 66.432 40.416 63.36C37.536 60.352 35.104 57.632 33.12 55.2C31.2 52.768 29.024 49.76 26.592 46.176C24.224 42.528 22.56 40.096 21.6 38.88L20.928 38.784C16.064 47.744 13.632 53.152 13.632 55.008C13.632 55.968 14.048 56.448 14.88 56.448C15.712 56.448 16.832 55.584 18.24 53.856C19.648 52.064 20.608 51.2 21.12 51.264C21.504 51.648 21.088 52.48 19.872 53.76C19.744 53.888 19.52 54.24 19.2 54.816C18.88 55.328 18.592 55.744 18.336 56.064C18.144 56.384 17.856 56.8 17.472 57.312C17.088 57.824 16.736 58.24 16.416 58.56C16.096 58.88 15.744 59.2 15.36 59.52C14.592 60.16 13.92 60.48 13.344 60.48C12.768 60.48 11.968 60.352 10.944 60.096C9.92 59.904 9.408 59.488 9.408 58.848C9.408 55.968 12.032 49.28 17.28 38.784C15.168 38.592 14.112 37.824 14.112 36.48C14.112 36.224 14.144 35.904 14.208 35.52C14.656 34.432 15.456 33.888 16.608 33.888C17.824 33.888 18.784 34.176 19.488 34.752C20 33.728 20.608 32.576 21.312 31.296C23.808 26.816 25.056 23.968 25.056 22.752C25.056 22.432 25.024 22.112 24.96 21.792C25.216 20 26.752 17.664 29.568 14.784C32.448 11.84 35.04 10.368 37.344 10.368C38.112 10.368 39.136 10.656 40.416 11.232C41.696 11.808 42.464 12.608 42.72 13.632C42.784 14.08 42.784 14.368 42.72 14.496C42.72 14.56 42.56 14.528 42.24 14.4C41.92 14.272 41.728 14.208 41.664 14.208C37.184 14.208 30.784 21.472 22.464 36C23.232 36.32 23.968 36.48 24.672 36.48C25.44 36.48 26.08 36.448 26.592 36.384C33.12 35.68 39.488 34.144 45.696 31.776C51.968 29.408 56.832 26.432 60.288 22.848C62.528 20.672 63.648 18.368 63.648 15.936C63.648 8.768 56.32 5.184 41.664 5.184C33.28 5.184 25.28 6.464 17.664 9.024C13.696 10.432 10.304 12.32 7.488 14.688C4.736 17.056 3.104 19.744 2.592 22.752C2.528 23.072 2.496 23.488 2.496 24C2.496 24.512 2.688 25.152 3.072 25.92C3.52 26.624 4.032 27.168 4.608 27.552C5.184 27.936 5.984 28.384 7.008 28.896C8.096 29.408 8.8 29.792 9.12 30.048C9.504 30.304 9.6 30.592 9.408 30.912C9.216 31.168 8.8 31.232 8.16 31.104C6.176 30.784 4.32 29.792 2.592 28.128C0.864 26.464 0 24.672 0 22.752C0 22.176 0.064 21.6 0.192 21.024Z"  />
<path d="M74.694 28.896C78.15 28.896 79.878 30.56 79.878 33.888C79.878 35.616 79.398 37.024 78.438 38.112C76.838 40.48 74.246 42.56 70.662 44.352C67.078 46.08 64.038 47.04 61.542 47.232C60.646 47.296 60.166 47.04 60.102 46.464C60.038 46.208 60.102 46.048 60.294 45.984C60.55 45.92 60.742 45.888 60.87 45.888C62.342 45.76 64.23 45.056 66.534 43.776C70.822 41.472 73.958 39.104 75.942 36.672C76.774 35.52 77.19 34.432 77.19 33.408C77.19 32.32 76.678 31.776 75.654 31.776C74.822 31.776 73.702 32.128 72.294 32.832C69.286 34.24 66.118 36.704 62.79 40.224C59.462 43.68 57.286 47.072 56.262 50.4C55.942 51.424 55.782 52.448 55.782 53.472C55.782 54.432 56.198 55.36 57.03 56.256C57.862 57.152 59.142 57.6 60.87 57.6C62.79 57.6 64.998 57.088 67.494 56.064C74.726 53.12 80.294 48.672 84.198 42.72C84.582 42.208 84.934 42.112 85.254 42.432C85.51 42.56 85.638 42.72 85.638 42.912C85.638 43.104 85.542 43.328 85.35 43.584C83.43 46.784 80.998 49.632 78.054 52.128C72.358 56.992 66.822 59.424 61.446 59.424C56.838 59.424 53.606 58.048 51.75 55.296C51.046 54.208 50.694 52.896 50.694 51.36C50.694 49.824 51.11 48 51.942 45.888C53.542 42.24 56.966 38.496 62.214 34.656C67.462 30.816 71.622 28.896 74.694 28.896Z"  />
<path d="M116.102 0.671997C117.254 0.223999 118.246 0 119.078 0C121.894 0 123.75 0.768 124.646 2.304C125.158 3.072 125.414 3.744 125.414 4.32C125.414 8.672 121.766 14.144 114.47 20.736C108.006 26.432 102.054 31.328 96.6143 35.424C94.8223 39.456 92.9662 44.416 91.0462 50.304C93.3503 47.488 96.2623 44.224 99.7822 40.512C106.886 33.152 111.846 29.472 114.662 29.472C116.07 29.472 116.806 30.176 116.87 31.584C116.998 33.056 116.678 34.464 115.91 35.808C115.206 37.152 114.534 38.4 113.894 39.552C110.886 44.544 109.382 48.992 109.382 52.896C109.382 54.176 109.638 55.104 110.15 55.68C111.046 56.704 112.326 56.768 113.99 55.872C115.654 54.976 117.958 53.184 120.902 50.496C123.91 47.808 126.342 45.184 128.198 42.624C128.518 42.304 128.806 42.24 129.062 42.432C129.382 42.56 129.542 42.72 129.542 42.912C129.542 43.04 129.478 43.2 129.35 43.392C128.39 45.12 126.662 47.328 124.166 50.016C121.67 52.64 119.654 54.528 118.118 55.68C115.174 57.92 112.358 59.04 109.67 59.04C107.238 59.04 105.606 57.824 104.774 55.392C104.582 54.816 104.486 54.144 104.486 53.376C104.486 52.544 104.55 51.68 104.678 50.784C104.998 48.096 106.694 43.904 109.766 38.208C110.406 37.056 110.726 36.256 110.726 35.808C110.726 35.296 110.47 35.04 109.958 35.04C108.934 35.04 106.95 36.32 104.006 38.88C102.022 40.736 99.0782 44.256 95.1742 49.44C91.3342 54.56 89.1582 57.28 88.6462 57.6C86.3422 58.752 84.9023 59.328 84.3262 59.328C83.8142 59.328 83.5263 59.232 83.4622 59.04C83.3982 58.912 83.4303 58.72 83.5583 58.464C83.6862 58.208 84.1983 56.8 85.0943 54.24C88.1023 45.728 90.1503 40.096 91.2383 37.344C89.1263 40.032 86.5023 43.072 83.3662 46.464C82.8542 46.976 82.5983 46.88 82.5983 46.176C82.5983 45.408 82.8863 44.64 83.4622 43.872C84.0382 43.104 85.2223 41.632 87.0143 39.456C88.8703 37.216 90.1823 35.552 90.9502 34.464C90.3743 34.144 90.0543 33.696 89.9902 33.12C89.9902 32.544 90.1823 32.16 90.5663 31.968C91.0143 31.712 91.7183 31.776 92.6783 32.16C93.3183 31.264 93.8942 30.272 94.4062 29.184C102.022 12.8 109.254 3.296 116.102 0.671997ZM121.478 7.872C122.31 6.336 122.726 5.056 122.726 4.032C122.726 2.944 122.246 2.4 121.286 2.4C120.39 2.4 119.174 2.976 117.638 4.128C110.598 9.504 104.23 18.496 98.5342 31.104C102.694 28.416 107.046 24.832 111.59 20.352C116.134 15.872 119.43 11.712 121.478 7.872Z"  />
<path d="M146.827 46.272C147.979 43.904 148.555 42.08 148.555 40.8C148.555 39.52 148.396 38.528 148.076 37.824C147.82 37.056 147.948 36.416 148.46 35.904C149.036 35.392 149.74 35.2 150.572 35.328C151.852 35.648 152.492 37.088 152.492 39.648C152.492 42.208 150.988 45.568 147.98 49.728C148.044 51.456 148.939 52.32 150.667 52.32C152.395 52.32 155.02 50.464 158.54 46.752C160.204 44.832 161.227 43.584 161.611 43.008C162.059 42.432 162.444 42.24 162.764 42.432C163.083 42.56 163.243 42.688 163.243 42.816C163.243 43.456 162.092 45.12 159.788 47.808C156.14 52.288 152.908 54.528 150.092 54.528C148.236 54.528 146.924 53.728 146.156 52.128C144.876 53.472 143.628 54.72 142.411 55.872C139.915 57.984 137.132 59.04 134.059 59.04C132.331 59.04 130.891 58.624 129.74 57.792C127.5 56.448 126.38 54.048 126.38 50.592C126.38 46.816 127.66 42.976 130.219 39.072C131.691 36.768 133.42 34.752 135.404 33.024C138.54 30.272 141.516 28.896 144.331 28.896C145.035 28.896 145.708 28.992 146.348 29.184C148.268 29.824 149.228 31.04 149.228 32.832C149.228 34.304 148.844 35.04 148.076 35.04C147.755 34.912 147.596 34.432 147.596 33.6C147.596 32.448 146.956 31.872 145.676 31.872C143.436 31.872 140.556 33.92 137.036 38.016C133.516 42.112 131.403 46.24 130.699 50.4C130.571 51.104 130.508 51.904 130.508 52.8C130.508 53.632 130.796 54.624 131.372 55.776C131.948 56.864 133.004 57.408 134.54 57.408C136.14 57.408 137.867 56.704 139.723 55.296C141.579 53.888 143.243 52.096 144.715 49.92L144.428 49.344C144.172 48.32 144.3 47.488 144.812 46.848C145.324 46.208 145.995 46.016 146.827 46.272Z"  />
<path d="M173.188 31.872C173.188 32.32 172.836 33.312 172.132 34.848C171.428 36.32 169.412 41.472 166.084 50.304C168.388 47.488 171.3 44.224 174.82 40.512C181.924 33.088 186.82 29.376 189.508 29.376C190.084 29.376 190.628 29.536 191.14 29.856C191.716 30.176 192.004 30.912 192.004 32.064C192.004 33.152 191.652 34.4 190.948 35.808C190.244 37.152 189.444 38.816 188.548 40.8C187.652 42.784 187.044 44.032 186.724 44.544C192.1 39.68 196.164 36.736 198.916 35.712C201.668 34.624 203.492 34.08 204.388 34.08C205.284 34.08 205.732 34.4 205.732 35.04C205.732 35.424 205.252 36.352 204.292 37.824C203.332 39.296 202.276 41.472 201.124 44.352C199.972 47.232 199.332 49.248 199.204 50.4C199.076 51.552 199.012 52.576 199.012 53.472C199.012 54.368 199.268 55.104 199.78 55.68C200.74 56.704 202.052 56.768 203.716 55.872C205.38 54.976 207.684 53.184 210.628 50.496C213.636 47.808 216.036 45.184 217.828 42.624C218.084 42.304 218.372 42.24 218.692 42.432C219.076 42.56 219.268 42.72 219.268 42.912C219.268 43.04 219.204 43.2 219.076 43.392C218.116 45.12 216.388 47.328 213.892 50.016C209.796 54.432 206.372 57.152 203.62 58.176C200.612 59.2 198.436 59.328 197.092 58.56C195.748 57.792 194.916 56.928 194.596 55.968C194.276 55.008 194.116 54.048 194.116 53.088C194.116 50.08 194.692 47.072 195.844 44.064C197.06 41.056 198.02 39.008 198.724 37.92C196.292 38.944 194.212 40.224 192.484 41.76C189.86 44.064 187.748 46.08 186.148 47.808L184.228 49.92C183.652 51.328 182.628 52.128 181.156 52.32C179.748 52.512 179.076 52.032 179.14 50.88C179.268 49.664 180.452 46.944 182.692 42.72C184.932 38.496 186.052 36.16 186.052 35.712C186.052 35.2 185.796 34.944 185.284 34.944C184.132 34.944 182.052 36.256 179.044 38.88C177.06 40.736 174.116 44.256 170.212 49.44C166.372 54.56 164.196 57.28 163.684 57.6C161.38 58.752 159.94 59.328 159.364 59.328C158.788 59.328 158.5 59.232 158.5 59.04C158.5 58.848 158.596 58.56 158.788 58.176C158.98 57.792 160.932 52.224 164.644 41.472C163.236 43.648 161.956 45.312 160.804 46.464C160.292 47.04 160.036 46.944 160.036 46.176C160.036 45.344 160.26 44.64 160.708 44.064C163.588 40.288 165.7 37.088 167.044 34.464C167.428 32.224 168.196 30.912 169.348 30.528C170.052 30.272 170.852 30.272 171.748 30.528C172.708 30.784 173.188 31.232 173.188 31.872Z"  />
<path d="M238.85 28.896C242.306 28.896 244.034 30.56 244.034 33.888C244.034 35.616 243.554 37.024 242.594 38.112C240.994 40.48 238.402 42.56 234.818 44.352C231.234 46.08 228.194 47.04 225.698 47.232C224.802 47.296 224.322 47.04 224.258 46.464C224.194 46.208 224.258 46.048 224.45 45.984C224.706 45.92 224.898 45.888 225.026 45.888C226.498 45.76 228.386 45.056 230.69 43.776C234.978 41.472 238.114 39.104 240.098 36.672C240.93 35.52 241.346 34.432 241.346 33.408C241.346 32.32 240.834 31.776 239.81 31.776C238.978 31.776 237.858 32.128 236.45 32.832C233.442 34.24 230.274 36.704 226.946 40.224C223.618 43.68 221.442 47.072 220.418 50.4C220.098 51.424 219.938 52.448 219.938 53.472C219.938 54.432 220.354 55.36 221.186 56.256C222.018 57.152 223.298 57.6 225.026 57.6C226.946 57.6 229.154 57.088 231.65 56.064C238.882 53.12 244.45 48.672 248.354 42.72C248.738 42.208 249.09 42.112 249.41 42.432C249.666 42.56 249.794 42.72 249.794 42.912C249.794 43.104 249.698 43.328 249.506 43.584C247.586 46.784 245.154 49.632 242.21 52.128C236.514 56.992 230.978 59.424 225.602 59.424C220.994 59.424 217.762 58.048 215.906 55.296C215.202 54.208 214.85 52.896 214.85 51.36C214.85 49.824 215.266 48 216.098 45.888C217.698 42.24 221.122 38.496 226.37 34.656C231.618 30.816 235.778 28.896 238.85 28.896Z"  />
</svg>
